<mxfile host="65bd71144e">
    <diagram id="tnIf2dZUckN230WYc6XP" name="Page-1">
        <mxGraphModel dx="2982" dy="1198" grid="1" gridSize="10" guides="1" tooltips="1" connect="1" arrows="1" fold="1" page="1" pageScale="1" pageWidth="850" pageHeight="1100" math="0" shadow="0">
            <root>
                <mxCell id="0"/>
                <mxCell id="1" parent="0"/>
                <mxCell id="45" value="Home" style="strokeWidth=1;shadow=0;dashed=0;align=center;html=1;shape=mxgraph.mockup.containers.window;align=left;verticalAlign=top;spacingLeft=8;strokeColor2=#008cff;strokeColor3=#c4c4c4;fontColor=#666666;mainText=;fontSize=17;labelBackgroundColor=none;whiteSpace=wrap;" parent="1" vertex="1">
                    <mxGeometry x="-830" y="450" width="550" height="380" as="geometry"/>
                </mxCell>
                <mxCell id="IvZDIj7d1JSX7GaBaQQV-227" value="&lt;font color=&quot;#6c767d&quot;&gt;&lt;b&gt;&lt;font style=&quot;&quot;&gt;&lt;span style=&quot;font-size: 20px;&quot;&gt;Issue 2&lt;/span&gt;&lt;br style=&quot;font-size: 10px&quot;&gt;Type: bug&lt;br&gt;&lt;/font&gt;&lt;/b&gt;&lt;/font&gt;&lt;br style=&quot;font-size: 14px&quot;&gt;Description" style="html=1;shadow=0;dashed=0;shape=mxgraph.bootstrap.rrect;rSize=5;strokeColor=#DFDFDF;html=1;whiteSpace=wrap;fillColor=#ffffff;fontColor=#000000;verticalAlign=top;align=left;spacing=20;fontSize=14;" parent="1" vertex="1">
                    <mxGeometry x="-554" y="570" width="228" height="160" as="geometry"/>
                </mxCell>
                <mxCell id="IvZDIj7d1JSX7GaBaQQV-229" value="View" style="html=1;shadow=0;dashed=0;shape=mxgraph.bootstrap.rrect;rSize=5;perimeter=none;whiteSpace=wrap;fillColor=none;strokeColor=none;fontColor=#0085FC;resizeWidth=1;fontSize=14;align=center;" parent="IvZDIj7d1JSX7GaBaQQV-227" vertex="1">
                    <mxGeometry y="1" width="142.5" height="40" relative="1" as="geometry">
                        <mxPoint x="43" y="-40" as="offset"/>
                    </mxGeometry>
                </mxCell>
                <mxCell id="16" value="Register" style="strokeWidth=1;shadow=0;dashed=0;align=center;html=1;shape=mxgraph.mockup.containers.window;align=left;verticalAlign=top;spacingLeft=8;strokeColor2=#008cff;strokeColor3=#c4c4c4;fontColor=#666666;mainText=;fontSize=17;labelBackgroundColor=none;whiteSpace=wrap;" parent="1" vertex="1">
                    <mxGeometry x="-250" y="20" width="550" height="380" as="geometry"/>
                </mxCell>
                <mxCell id="41" value="Login" style="strokeWidth=1;shadow=0;dashed=0;align=center;html=1;shape=mxgraph.mockup.containers.window;align=left;verticalAlign=top;spacingLeft=8;strokeColor2=#008cff;strokeColor3=#c4c4c4;fontColor=#666666;mainText=;fontSize=17;labelBackgroundColor=none;whiteSpace=wrap;" parent="1" vertex="1">
                    <mxGeometry x="-830" y="20" width="550" height="380" as="geometry"/>
                </mxCell>
                <mxCell id="44" value="Issue" style="strokeWidth=1;shadow=0;dashed=0;align=center;html=1;shape=mxgraph.mockup.containers.window;align=left;verticalAlign=top;spacingLeft=8;strokeColor2=#008cff;strokeColor3=#c4c4c4;fontColor=#666666;mainText=;fontSize=17;labelBackgroundColor=none;whiteSpace=wrap;" parent="1" vertex="1">
                    <mxGeometry x="-240" y="450" width="550" height="380" as="geometry"/>
                </mxCell>
                <mxCell id="51" value="" style="verticalLabelPosition=bottom;shadow=0;dashed=0;align=center;html=1;verticalAlign=top;strokeWidth=1;shape=mxgraph.mockup.containers.userMale;strokeColor=#666666;strokeColor2=#008cff;" parent="1" vertex="1">
                    <mxGeometry x="-605" y="90" width="100" height="100" as="geometry"/>
                </mxCell>
                <mxCell id="IvZDIj7d1JSX7GaBaQQV-55" value="Email" style="html=1;shadow=0;dashed=0;shape=mxgraph.bootstrap.rrect;rSize=5;fillColor=none;strokeColor=#999999;align=left;spacing=15;fontSize=14;fontColor=#6C767D;" parent="1" vertex="1">
                    <mxGeometry x="-650" y="220" width="190" height="30" as="geometry"/>
                </mxCell>
                <mxCell id="52" value="Login" style="strokeWidth=1;shadow=0;dashed=0;align=center;html=1;shape=mxgraph.mockup.buttons.button;strokeColor=#666666;fontColor=#ffffff;mainText=;buttonStyle=round;fontSize=17;fontStyle=1;fillColor=#008cff;whiteSpace=wrap;" parent="1" vertex="1">
                    <mxGeometry x="-610" y="310" width="110" height="30" as="geometry"/>
                </mxCell>
                <mxCell id="54" value="Password" style="html=1;shadow=0;dashed=0;shape=mxgraph.bootstrap.rrect;rSize=5;fillColor=none;strokeColor=#999999;align=left;spacing=15;fontSize=14;fontColor=#6C767D;" parent="1" vertex="1">
                    <mxGeometry x="-650" y="260" width="190" height="30" as="geometry"/>
                </mxCell>
                <mxCell id="55" value="Registrati ORA!" style="shape=rectangle;strokeColor=none;fillColor=none;linkText=;fontSize=12;fontColor=#0000ff;fontStyle=4;html=1;align=center;" parent="1" vertex="1">
                    <mxGeometry x="-545" y="370" width="100" height="10" as="geometry"/>
                </mxCell>
                <mxCell id="57" value="Non hai un account?" style="text;html=1;align=center;verticalAlign=middle;whiteSpace=wrap;rounded=0;fontSize=12;" parent="1" vertex="1">
                    <mxGeometry x="-665" y="370" width="135" height="10" as="geometry"/>
                </mxCell>
                <mxCell id="58" value="" style="endArrow=classic;startArrow=none;html=1;startFill=0;exitX=1;exitY=0.75;exitDx=0;exitDy=0;entryX=0.004;entryY=0.051;entryDx=0;entryDy=0;entryPerimeter=0;" parent="1" source="55" target="16" edge="1">
                    <mxGeometry width="50" height="50" relative="1" as="geometry">
                        <mxPoint x="-430" y="250" as="sourcePoint"/>
                        <mxPoint x="-380" y="200" as="targetPoint"/>
                    </mxGeometry>
                </mxCell>
                <mxCell id="IvZDIj7d1JSX7GaBaQQV-62" value="" style="verticalLabelPosition=bottom;shadow=0;dashed=0;align=center;html=1;verticalAlign=top;strokeWidth=1;shape=mxgraph.mockup.containers.userMale;strokeColor=#666666;strokeColor2=#008cff;" parent="1" vertex="1">
                    <mxGeometry x="-25" y="70" width="100" height="100" as="geometry"/>
                </mxCell>
                <mxCell id="IvZDIj7d1JSX7GaBaQQV-63" value="Email" style="html=1;shadow=0;dashed=0;shape=mxgraph.bootstrap.rrect;rSize=5;fillColor=none;strokeColor=#999999;align=left;spacing=15;fontSize=14;fontColor=#6C767D;" parent="1" vertex="1">
                    <mxGeometry x="-70" y="180" width="190" height="30" as="geometry"/>
                </mxCell>
                <mxCell id="IvZDIj7d1JSX7GaBaQQV-65" value="Password" style="html=1;shadow=0;dashed=0;shape=mxgraph.bootstrap.rrect;rSize=5;fillColor=none;strokeColor=#999999;align=left;spacing=15;fontSize=14;fontColor=#6C767D;" parent="1" vertex="1">
                    <mxGeometry x="-70" y="220" width="190" height="30" as="geometry"/>
                </mxCell>
                <mxCell id="IvZDIj7d1JSX7GaBaQQV-66" value="Effettua l&#39;accesso!" style="shape=rectangle;strokeColor=none;fillColor=none;linkText=;fontSize=12;fontColor=#0000ff;fontStyle=4;html=1;align=center;" parent="1" vertex="1">
                    <mxGeometry x="42.5" y="370" width="100" height="10" as="geometry"/>
                </mxCell>
                <mxCell id="IvZDIj7d1JSX7GaBaQQV-67" value="Non hai un account?" style="text;html=1;align=center;verticalAlign=middle;whiteSpace=wrap;rounded=0;fontSize=12;" parent="1" vertex="1">
                    <mxGeometry x="-82.5" y="370" width="135" height="10" as="geometry"/>
                </mxCell>
                <mxCell id="59" value="Conferma Password" style="html=1;shadow=0;dashed=0;shape=mxgraph.bootstrap.rrect;rSize=5;fillColor=none;strokeColor=#999999;align=left;spacing=15;fontSize=14;fontColor=#6C767D;" parent="1" vertex="1">
                    <mxGeometry x="-70" y="260" width="190" height="30" as="geometry"/>
                </mxCell>
                <mxCell id="IvZDIj7d1JSX7GaBaQQV-69" style="edgeStyle=none;html=1;" parent="1" source="IvZDIj7d1JSX7GaBaQQV-64" target="41" edge="1">
                    <mxGeometry relative="1" as="geometry"/>
                </mxCell>
                <mxCell id="IvZDIj7d1JSX7GaBaQQV-64" value="Register" style="strokeWidth=1;shadow=0;dashed=0;align=center;html=1;shape=mxgraph.mockup.buttons.button;strokeColor=#666666;fontColor=#ffffff;mainText=;buttonStyle=round;fontSize=17;fontStyle=1;fillColor=#008cff;whiteSpace=wrap;" parent="1" vertex="1">
                    <mxGeometry x="-30" y="310" width="110" height="30" as="geometry"/>
                </mxCell>
                <mxCell id="61" style="edgeStyle=none;html=1;exitX=0.5;exitY=0;exitDx=0;exitDy=0;entryX=1.005;entryY=0.783;entryDx=0;entryDy=0;entryPerimeter=0;" parent="1" source="IvZDIj7d1JSX7GaBaQQV-66" target="41" edge="1">
                    <mxGeometry relative="1" as="geometry"/>
                </mxCell>
                <mxCell id="IvZDIj7d1JSX7GaBaQQV-70" style="edgeStyle=none;html=1;entryX=0.5;entryY=0.005;entryDx=0;entryDy=0;entryPerimeter=0;" parent="1" source="52" target="45" edge="1">
                    <mxGeometry relative="1" as="geometry"/>
                </mxCell>
                <mxCell id="167" style="edgeStyle=none;html=1;" edge="1" parent="1" source="63" target="45">
                    <mxGeometry relative="1" as="geometry"/>
                </mxCell>
                <mxCell id="63" value="Register" style="strokeWidth=1;shadow=0;dashed=0;align=center;html=1;shape=mxgraph.mockup.containers.window;align=left;verticalAlign=top;spacingLeft=8;strokeColor2=#008cff;strokeColor3=#c4c4c4;fontColor=#666666;mainText=;fontSize=17;labelBackgroundColor=none;whiteSpace=wrap;" parent="1" vertex="1">
                    <mxGeometry x="-830" y="860" width="550" height="380" as="geometry"/>
                </mxCell>
                <mxCell id="106" value="" style="shape=table;startSize=0;container=1;collapsible=0;childLayout=tableLayout;fontSize=16;" parent="1" vertex="1">
                    <mxGeometry x="-820" y="960" width="480" height="110" as="geometry"/>
                </mxCell>
                <mxCell id="107" value="" style="shape=tableRow;horizontal=0;startSize=0;swimlaneHead=0;swimlaneBody=0;strokeColor=inherit;top=0;left=0;bottom=0;right=0;collapsible=0;dropTarget=0;fillColor=none;points=[[0,0.5],[1,0.5]];portConstraint=eastwest;fontSize=16;" parent="106" vertex="1">
                    <mxGeometry width="480" height="37" as="geometry"/>
                </mxCell>
                <mxCell id="108" value="Email" style="shape=partialRectangle;html=1;whiteSpace=wrap;connectable=0;strokeColor=#666666;overflow=hidden;fillColor=#f5f5f5;top=0;left=0;bottom=0;right=0;pointerEvents=1;fontSize=16;fontStyle=1;fontColor=#333333;" parent="107" vertex="1">
                    <mxGeometry width="180" height="37" as="geometry">
                        <mxRectangle width="180" height="37" as="alternateBounds"/>
                    </mxGeometry>
                </mxCell>
                <mxCell id="109" value="Password" style="shape=partialRectangle;html=1;whiteSpace=wrap;connectable=0;strokeColor=#666666;overflow=hidden;fillColor=#f5f5f5;top=0;left=0;bottom=0;right=0;pointerEvents=1;fontSize=16;fontStyle=1;fontColor=#333333;" parent="107" vertex="1">
                    <mxGeometry x="180" width="139" height="37" as="geometry">
                        <mxRectangle width="139" height="37" as="alternateBounds"/>
                    </mxGeometry>
                </mxCell>
                <mxCell id="110" value="Ruolo" style="shape=partialRectangle;html=1;whiteSpace=wrap;connectable=0;strokeColor=#666666;overflow=hidden;fillColor=#f5f5f5;top=0;left=0;bottom=0;right=0;pointerEvents=1;fontSize=16;fontStyle=1;fontColor=#333333;" parent="107" vertex="1">
                    <mxGeometry x="319" width="161" height="37" as="geometry">
                        <mxRectangle width="161" height="37" as="alternateBounds"/>
                    </mxGeometry>
                </mxCell>
                <mxCell id="111" value="" style="shape=tableRow;horizontal=0;startSize=0;swimlaneHead=0;swimlaneBody=0;strokeColor=inherit;top=0;left=0;bottom=0;right=0;collapsible=0;dropTarget=0;fillColor=none;points=[[0,0.5],[1,0.5]];portConstraint=eastwest;fontSize=16;" parent="106" vertex="1">
                    <mxGeometry y="37" width="480" height="36" as="geometry"/>
                </mxCell>
                <mxCell id="112" value="&lt;span style=&quot;color: rgb(0, 0, 0);&quot;&gt;mario@example.com&lt;/span&gt;" style="shape=partialRectangle;html=1;whiteSpace=wrap;connectable=0;strokeColor=inherit;overflow=hidden;fillColor=none;top=0;left=0;bottom=0;right=0;pointerEvents=1;fontSize=16;" parent="111" vertex="1">
                    <mxGeometry width="180" height="36" as="geometry">
                        <mxRectangle width="180" height="36" as="alternateBounds"/>
                    </mxGeometry>
                </mxCell>
                <mxCell id="113" value="**********" style="shape=partialRectangle;html=1;whiteSpace=wrap;connectable=0;strokeColor=inherit;overflow=hidden;fillColor=none;top=0;left=0;bottom=0;right=0;pointerEvents=1;fontSize=16;" parent="111" vertex="1">
                    <mxGeometry x="180" width="139" height="36" as="geometry">
                        <mxRectangle width="139" height="36" as="alternateBounds"/>
                    </mxGeometry>
                </mxCell>
                <mxCell id="114" value="" style="shape=partialRectangle;html=1;whiteSpace=wrap;connectable=0;strokeColor=inherit;overflow=hidden;fillColor=none;top=0;left=0;bottom=0;right=0;pointerEvents=1;fontSize=16;" parent="111" vertex="1">
                    <mxGeometry x="319" width="161" height="36" as="geometry">
                        <mxRectangle width="161" height="36" as="alternateBounds"/>
                    </mxGeometry>
                </mxCell>
                <mxCell id="115" value="" style="shape=tableRow;horizontal=0;startSize=0;swimlaneHead=0;swimlaneBody=0;strokeColor=inherit;top=0;left=0;bottom=0;right=0;collapsible=0;dropTarget=0;fillColor=none;points=[[0,0.5],[1,0.5]];portConstraint=eastwest;fontSize=16;" parent="106" vertex="1">
                    <mxGeometry y="73" width="480" height="37" as="geometry"/>
                </mxCell>
                <mxCell id="116" value="pietrosmusi@gmail.com" style="shape=partialRectangle;html=1;whiteSpace=wrap;connectable=0;strokeColor=inherit;overflow=hidden;fillColor=none;top=0;left=0;bottom=0;right=0;pointerEvents=1;fontSize=16;" parent="115" vertex="1">
                    <mxGeometry width="180" height="37" as="geometry">
                        <mxRectangle width="180" height="37" as="alternateBounds"/>
                    </mxGeometry>
                </mxCell>
                <mxCell id="117" value="&lt;span style=&quot;color: rgb(0, 0, 0);&quot;&gt;**********&lt;/span&gt;" style="shape=partialRectangle;html=1;whiteSpace=wrap;connectable=0;strokeColor=inherit;overflow=hidden;fillColor=none;top=0;left=0;bottom=0;right=0;pointerEvents=1;fontSize=16;" parent="115" vertex="1">
                    <mxGeometry x="180" width="139" height="37" as="geometry">
                        <mxRectangle width="139" height="37" as="alternateBounds"/>
                    </mxGeometry>
                </mxCell>
                <mxCell id="118" value="" style="shape=partialRectangle;html=1;whiteSpace=wrap;connectable=0;strokeColor=inherit;overflow=hidden;fillColor=none;top=0;left=0;bottom=0;right=0;pointerEvents=1;fontSize=16;" parent="115" vertex="1">
                    <mxGeometry x="319" width="161" height="37" as="geometry">
                        <mxRectangle width="161" height="37" as="alternateBounds"/>
                    </mxGeometry>
                </mxCell>
                <mxCell id="IvZDIj7d1JSX7GaBaQQV-119" value="" style="html=1;verticalLabelPosition=bottom;align=center;labelBackgroundColor=#ffffff;verticalAlign=top;strokeWidth=2;strokeColor=#0080F0;shadow=0;dashed=0;shape=mxgraph.ios7.icons.back;" parent="1" vertex="1">
                    <mxGeometry x="-330" y="914.5" width="30" height="25.5" as="geometry"/>
                </mxCell>
                <mxCell id="120" value="&lt;font style=&quot;font-size: 31px; color: light-dark(rgb(255, 255, 255), rgb(237, 237, 237));&quot;&gt;+&lt;/font&gt;" style="html=1;shadow=0;dashed=0;shape=mxgraph.bootstrap.rrect;rSize=5;strokeColor=none;strokeWidth=1;fillColor=#33A64C;fontColor=default;whiteSpace=wrap;align=center;verticalAlign=middle;spacingLeft=0;fontStyle=0;fontSize=16;spacing=5;" parent="1" vertex="1">
                    <mxGeometry x="-380" y="1075" width="40" height="35" as="geometry"/>
                </mxCell>
                <mxCell id="122" value="" style="html=1;shadow=0;dashed=0;shape=mxgraph.bootstrap.rrect;rSize=5;strokeColor=#b85450;strokeWidth=1;fillColor=#FF3535;whiteSpace=wrap;align=center;verticalAlign=middle;spacingLeft=0;fontStyle=0;fontSize=16;spacing=5;fontColor=#FFFFFF;" parent="1" vertex="1">
                    <mxGeometry x="-331.5" y="1000" width="31.5" height="30" as="geometry"/>
                </mxCell>
                <mxCell id="IvZDIj7d1JSX7GaBaQQV-125" value="" style="html=1;verticalLabelPosition=bottom;align=center;labelBackgroundColor=#ffffff;verticalAlign=top;strokeWidth=2;strokeColor=#FFFFFF;shadow=0;dashed=0;shape=mxgraph.ios7.icons.trashcan;fillColor=#FF3535;" parent="1" vertex="1">
                    <mxGeometry x="-324.25" y="1006.25" width="17" height="17.5" as="geometry"/>
                </mxCell>
                <mxCell id="IvZDIj7d1JSX7GaBaQQV-126" value="Amministratore" style="html=1;shadow=0;dashed=0;shape=mxgraph.bootstrap.rrect;rSize=5;fillColor=#ffffff;strokeColor=#999999;align=left;spacing=15;fontSize=14;fontColor=#6C767D;" parent="1" vertex="1">
                    <mxGeometry x="-500" y="1000" width="160" height="30" as="geometry"/>
                </mxCell>
                <mxCell id="IvZDIj7d1JSX7GaBaQQV-127" value="" style="shape=triangle;direction=south;fillColor=#343A40;strokeColor=none;perimeter=none;sketch=0;" parent="IvZDIj7d1JSX7GaBaQQV-126" vertex="1">
                    <mxGeometry x="1" y="0.5" width="7" height="3" relative="1" as="geometry">
                        <mxPoint x="-17" y="1" as="offset"/>
                    </mxGeometry>
                </mxCell>
                <mxCell id="IvZDIj7d1JSX7GaBaQQV-128" value="" style="shape=triangle;direction=north;fillColor=#343A40;strokeColor=none;perimeter=none;sketch=0;" parent="IvZDIj7d1JSX7GaBaQQV-126" vertex="1">
                    <mxGeometry x="1" y="0.5" width="7" height="3" relative="1" as="geometry">
                        <mxPoint x="-17" y="-4" as="offset"/>
                    </mxGeometry>
                </mxCell>
                <mxCell id="126" value="" style="html=1;shadow=0;dashed=0;shape=mxgraph.bootstrap.rrect;rSize=5;strokeColor=#b85450;strokeWidth=1;fillColor=#FF3535;whiteSpace=wrap;align=center;verticalAlign=middle;spacingLeft=0;fontStyle=0;fontSize=16;spacing=5;fontColor=#FFFFFF;" parent="1" vertex="1">
                    <mxGeometry x="-330.75" y="1040" width="31.5" height="30" as="geometry"/>
                </mxCell>
                <mxCell id="127" value="" style="html=1;verticalLabelPosition=bottom;align=center;labelBackgroundColor=#ffffff;verticalAlign=top;strokeWidth=2;strokeColor=#FFFFFF;shadow=0;dashed=0;shape=mxgraph.ios7.icons.trashcan;fillColor=#FF3535;" parent="1" vertex="1">
                    <mxGeometry x="-323.5" y="1046.25" width="17" height="17.5" as="geometry"/>
                </mxCell>
                <mxCell id="IvZDIj7d1JSX7GaBaQQV-131" value="Utente" style="html=1;shadow=0;dashed=0;shape=mxgraph.bootstrap.rrect;rSize=5;fillColor=#ffffff;strokeColor=#999999;align=left;spacing=15;fontSize=14;fontColor=#6C767D;" parent="1" vertex="1">
                    <mxGeometry x="-500" y="1035" width="160" height="30" as="geometry"/>
                </mxCell>
                <mxCell id="IvZDIj7d1JSX7GaBaQQV-132" value="" style="shape=triangle;direction=south;fillColor=#343A40;strokeColor=none;perimeter=none;sketch=0;" parent="IvZDIj7d1JSX7GaBaQQV-131" vertex="1">
                    <mxGeometry x="1" y="0.5" width="7" height="3" relative="1" as="geometry">
                        <mxPoint x="-17" y="1" as="offset"/>
                    </mxGeometry>
                </mxCell>
                <mxCell id="IvZDIj7d1JSX7GaBaQQV-133" value="" style="shape=triangle;direction=north;fillColor=#343A40;strokeColor=none;perimeter=none;sketch=0;" parent="IvZDIj7d1JSX7GaBaQQV-131" vertex="1">
                    <mxGeometry x="1" y="0.5" width="7" height="3" relative="1" as="geometry">
                        <mxPoint x="-17" y="-4" as="offset"/>
                    </mxGeometry>
                </mxCell>
                <mxCell id="IvZDIj7d1JSX7GaBaQQV-142" value="Creazione utenti" style="html=1;shadow=0;dashed=0;shape=mxgraph.bootstrap.rrect;rSize=5;strokeWidth=1;whiteSpace=wrap;align=left;verticalAlign=middle;spacingLeft=0;fontStyle=1;fontSize=14;spacing=5;strokeColor=none;" parent="1" vertex="1">
                    <mxGeometry x="-820" y="900" width="160" height="40" as="geometry"/>
                </mxCell>
                <mxCell id="IvZDIj7d1JSX7GaBaQQV-237" style="edgeStyle=none;html=1;" parent="1" source="150" target="151" edge="1">
                    <mxGeometry relative="1" as="geometry">
                        <Array as="points">
                            <mxPoint x="-550" y="750"/>
                            <mxPoint x="-410" y="750"/>
                        </Array>
                    </mxGeometry>
                </mxCell>
                <mxCell id="129" value="" style="html=1;shadow=0;dashed=0;fillColor=#F8F9FA;strokeColor=none;fontSize=16;fontColor=#181819;align=left;spacing=15;" parent="1" vertex="1">
                    <mxGeometry x="-830" y="480" width="550" height="60" as="geometry"/>
                </mxCell>
                <mxCell id="130" value="" style="swimlane;shape=mxgraph.bootstrap.anchor;strokeColor=none;fillColor=none;fontColor=#0085FC;fontStyle=0;childLayout=stackLayout;horizontal=0;startSize=0;horizontalStack=1;resizeParent=1;resizeParentMax=0;resizeLast=0;collapsible=0;marginBottom=0;whiteSpace=wrap;html=1;resizeWidth=0;" parent="129" vertex="1">
                    <mxGeometry x="20" y="10" width="80" height="40" as="geometry"/>
                </mxCell>
                <mxCell id="131" value="BugBoard26" style="text;strokeColor=none;align=center;verticalAlign=middle;spacingLeft=10;spacingRight=10;points=[[0,0.5],[1,0.5]];portConstraint=eastwest;rotatable=0;whiteSpace=wrap;html=1;fillColor=none;fontColor=#181819;fontSize=16;" parent="130" vertex="1">
                    <mxGeometry width="80" height="40" as="geometry"/>
                </mxCell>
                <mxCell id="IvZDIj7d1JSX7GaBaQQV-168" value="" style="html=1;verticalLabelPosition=bottom;align=center;labelBackgroundColor=#ffffff;verticalAlign=top;strokeWidth=2;strokeColor=#0080F0;shadow=0;dashed=0;shape=mxgraph.ios7.icons.user;" parent="129" vertex="1">
                    <mxGeometry x="500" y="15" width="30" height="30" as="geometry"/>
                </mxCell>
                <mxCell id="137" value="" style="swimlane;container=1;shape=mxgraph.bootstrap.rrect;rSize=5;strokeColor=#999999;fillColor=#ffffff;fontStyle=0;childLayout=stackLayout;horizontal=1;startSize=0;horizontalStack=0;resizeParent=1;resizeParentMax=0;resizeLast=0;collapsible=0;marginBottom=0;whiteSpace=wrap;html=1;" parent="1" vertex="1">
                    <mxGeometry x="-450" y="530" width="160" height="80" as="geometry"/>
                </mxCell>
                <mxCell id="138" value="" style="text;align=center;verticalAlign=middle;spacingLeft=10;spacingRight=10;overflow=hidden;points=[[0,0.5],[1,0.5]];portConstraint=eastwest;rotatable=0;whiteSpace=wrap;html=1;fontColor=inherit;" parent="137" vertex="1">
                    <mxGeometry width="160" height="10" as="geometry"/>
                </mxCell>
                <UserObject label="&lt;font&gt;Email:&amp;nbsp;&lt;span style=&quot;color: rgb(0, 0, 0);&quot;&gt;mario@example.com&lt;/span&gt;&lt;/font&gt;" link="https://www.draw.io" id="143">
                    <mxCell style="text;html=1;strokeColor=none;fillColor=none;whiteSpace=wrap;align=center;verticalAlign=middle;fontColor=#0000EE;fontStyle=0;" parent="137" vertex="1">
                        <mxGeometry y="10" width="160" height="30" as="geometry"/>
                    </mxCell>
                </UserObject>
                <UserObject label="Logout" link="https://www.draw.io" id="145">
                    <mxCell style="text;html=1;strokeColor=none;fillColor=none;whiteSpace=wrap;align=center;verticalAlign=middle;fontColor=#0000EE;fontStyle=4;" parent="137" vertex="1">
                        <mxGeometry y="40" width="160" height="20" as="geometry"/>
                    </mxCell>
                </UserObject>
                <UserObject label="Crea utente" link="https://www.draw.io" id="165">
                    <mxCell style="text;html=1;strokeColor=none;fillColor=none;whiteSpace=wrap;align=center;verticalAlign=middle;fontColor=#0000EE;fontStyle=4;" vertex="1" parent="137">
                        <mxGeometry y="60" width="160" height="20" as="geometry"/>
                    </mxCell>
                </UserObject>
                <mxCell id="146" value="&lt;b&gt;&lt;font style=&quot;font-size: 20px&quot;&gt;Issue 1&lt;/font&gt;&lt;/b&gt;&lt;font color=&quot;#6c767d&quot;&gt;&lt;b&gt;&lt;font style=&quot;font-size: 14px&quot;&gt;&lt;br style=&quot;font-size: 10px&quot;&gt;Type: Bug&lt;br&gt;&lt;/font&gt;&lt;/b&gt;&lt;/font&gt;&lt;br style=&quot;font-size: 14px&quot;&gt;Description" style="html=1;shadow=0;dashed=0;shape=mxgraph.bootstrap.rrect;rSize=5;strokeColor=#DFDFDF;html=1;whiteSpace=wrap;fillColor=#ffffff;fontColor=#000000;verticalAlign=top;align=left;spacing=20;fontSize=14;" parent="1" vertex="1">
                    <mxGeometry x="-800" y="570" width="240" height="160" as="geometry"/>
                </mxCell>
                <mxCell id="150" value="View" style="html=1;shadow=0;dashed=0;shape=mxgraph.bootstrap.rrect;rSize=5;perimeter=none;whiteSpace=wrap;fillColor=none;strokeColor=none;fontColor=#0085FC;resizeWidth=1;fontSize=14;align=center;" parent="1" vertex="1">
                    <mxGeometry x="-751.25" y="690" width="142.5" height="40" as="geometry"/>
                </mxCell>
                <mxCell id="IvZDIj7d1JSX7GaBaQQV-230" value="" style="swimlane;shape=mxgraph.bootstrap.anchor;strokeColor=#DEE2E6;fillColor=#ffffff;fontColor=#0085FC;fontStyle=0;childLayout=stackLayout;horizontal=0;startSize=0;horizontalStack=1;resizeParent=1;resizeParentMax=0;resizeLast=0;collapsible=0;marginBottom=0;whiteSpace=wrap;html=1;" parent="1" vertex="1">
                    <mxGeometry x="-670" y="780" width="220" height="30" as="geometry"/>
                </mxCell>
                <mxCell id="IvZDIj7d1JSX7GaBaQQV-231" value="Previous" style="text;strokeColor=inherit;align=center;verticalAlign=middle;spacingLeft=5;spacingRight=5;overflow=hidden;points=[[0,0.5],[1,0.5]];portConstraint=eastwest;rotatable=0;whiteSpace=wrap;html=1;shape=mxgraph.bootstrap.leftButton;rSize=5;fillColor=inherit;fontColor=inherit;fontSize=14;" parent="IvZDIj7d1JSX7GaBaQQV-230" vertex="1">
                    <mxGeometry width="70" height="30" as="geometry"/>
                </mxCell>
                <mxCell id="IvZDIj7d1JSX7GaBaQQV-232" value="1" style="text;strokeColor=inherit;align=center;verticalAlign=middle;spacingLeft=5;spacingRight=5;overflow=hidden;points=[[0,0.5],[1,0.5]];portConstraint=eastwest;rotatable=0;whiteSpace=wrap;html=1;rSize=5;fillColor=inherit;fontColor=inherit;fontSize=14;" parent="IvZDIj7d1JSX7GaBaQQV-230" vertex="1">
                    <mxGeometry x="70" width="30" height="30" as="geometry"/>
                </mxCell>
                <mxCell id="IvZDIj7d1JSX7GaBaQQV-233" value="2" style="text;strokeColor=inherit;align=center;verticalAlign=middle;spacingLeft=5;spacingRight=5;overflow=hidden;points=[[0,0.5],[1,0.5]];portConstraint=eastwest;rotatable=0;whiteSpace=wrap;html=1;rSize=5;fillColor=inherit;fontColor=inherit;fontSize=14;" parent="IvZDIj7d1JSX7GaBaQQV-230" vertex="1">
                    <mxGeometry x="100" width="30" height="30" as="geometry"/>
                </mxCell>
                <mxCell id="IvZDIj7d1JSX7GaBaQQV-234" value="3" style="text;strokeColor=inherit;align=center;verticalAlign=middle;spacingLeft=5;spacingRight=5;overflow=hidden;points=[[0,0.5],[1,0.5]];portConstraint=eastwest;rotatable=0;whiteSpace=wrap;html=1;rSize=5;fillColor=inherit;fontColor=inherit;fontSize=14;" parent="IvZDIj7d1JSX7GaBaQQV-230" vertex="1">
                    <mxGeometry x="130" width="30" height="30" as="geometry"/>
                </mxCell>
                <mxCell id="IvZDIj7d1JSX7GaBaQQV-235" value="Next" style="text;strokeColor=inherit;align=center;verticalAlign=middle;spacingLeft=5;spacingRight=5;overflow=hidden;points=[[0,0.5],[1,0.5]];portConstraint=eastwest;rotatable=0;whiteSpace=wrap;html=1;shape=mxgraph.bootstrap.rightButton;rSize=5;fillColor=inherit;fontColor=inherit;fontSize=14;" parent="IvZDIj7d1JSX7GaBaQQV-230" vertex="1">
                    <mxGeometry x="160" width="60" height="30" as="geometry"/>
                </mxCell>
                <mxCell id="151" value="&lt;b&gt;&lt;font style=&quot;font-size: 20px&quot;&gt;Issue 1&lt;/font&gt;&lt;/b&gt;&lt;font color=&quot;#6c767d&quot;&gt;&lt;b&gt;&lt;font style=&quot;font-size: 14px&quot;&gt;&lt;br style=&quot;font-size: 10px&quot;&gt;Type: Bug&lt;br&gt;&lt;/font&gt;&lt;/b&gt;&lt;/font&gt;&lt;br style=&quot;font-size: 14px&quot;&gt;Description" style="html=1;shadow=0;dashed=0;shape=mxgraph.bootstrap.rrect;rSize=5;strokeColor=#DFDFDF;html=1;whiteSpace=wrap;fillColor=#ffffff;fontColor=#000000;verticalAlign=top;align=left;spacing=20;fontSize=14;" parent="1" vertex="1">
                    <mxGeometry x="-240" y="490" width="550" height="340" as="geometry"/>
                </mxCell>
                <mxCell id="IvZDIj7d1JSX7GaBaQQV-236" value="" style="html=1;verticalLabelPosition=bottom;align=center;labelBackgroundColor=#ffffff;verticalAlign=top;strokeWidth=2;strokeColor=#0080F0;shadow=0;dashed=0;shape=mxgraph.ios7.icons.back;" parent="1" vertex="1">
                    <mxGeometry x="270" y="497.25" width="30" height="25.5" as="geometry"/>
                </mxCell>
                <mxCell id="153" value="" style="shape=rect;fillColor=#e0e0e0;strokeColor=none;" parent="1" vertex="1">
                    <mxGeometry x="80" y="607.5" width="164" height="20" as="geometry"/>
                </mxCell>
                <mxCell id="154" value="Commenta..." style="html=1;strokeWidth=1;shadow=0;dashed=0;shape=mxgraph.ios7ui.marginRect;rx=3;ry=3;rectMargin=5;strokeColor=none;align=right;" parent="153" vertex="1">
                    <mxGeometry width="164" height="20" as="geometry"/>
                </mxCell>
                <mxCell id="157" value="" style="html=1;verticalLabelPosition=bottom;align=center;labelBackgroundColor=#ffffff;verticalAlign=top;strokeWidth=2;strokeColor=#0080F0;shadow=0;dashed=0;shape=mxgraph.ios7.icons.user;" parent="1" vertex="1">
                    <mxGeometry x="44" y="607.5" width="30" height="30" as="geometry"/>
                </mxCell>
                <mxCell id="IvZDIj7d1JSX7GaBaQQV-238" value="Photo" style="html=1;shadow=0;dashed=0;shape=mxgraph.bootstrap.rrect;rSize=5;strokeColor=#343A40;strokeWidth=1;fillColor=none;fontColor=#343A40;whiteSpace=wrap;align=center;verticalAlign=middle;spacingLeft=0;fontStyle=0;fontSize=16;spacing=5;" parent="1" vertex="1">
                    <mxGeometry x="-230" y="600" width="230" height="220" as="geometry"/>
                </mxCell>
                <mxCell id="IvZDIj7d1JSX7GaBaQQV-239" value="&lt;font style=&quot;font-size: 31px; color: light-dark(rgb(255, 255, 255), rgb(237, 237, 237));&quot;&gt;+&lt;/font&gt;" style="html=1;shadow=0;dashed=0;shape=mxgraph.bootstrap.rrect;rSize=5;strokeColor=none;strokeWidth=1;fillColor=#33A64C;fontColor=default;whiteSpace=wrap;align=center;verticalAlign=middle;spacingLeft=0;fontStyle=0;fontSize=16;spacing=5;" parent="1" vertex="1">
                    <mxGeometry x="-366" y="745" width="40" height="35" as="geometry"/>
                </mxCell>
                <mxCell id="170" value="" style="rounded=1;whiteSpace=wrap;html=1;" vertex="1" parent="1">
                    <mxGeometry x="32.5" y="647.5" width="237.5" height="62.5" as="geometry"/>
                </mxCell>
                <mxCell id="168" style="edgeStyle=none;html=1;entryX=0.729;entryY=0.001;entryDx=0;entryDy=0;entryPerimeter=0;exitX=0.75;exitY=1;exitDx=0;exitDy=0;" edge="1" parent="1" source="165" target="63">
                    <mxGeometry relative="1" as="geometry">
                        <Array as="points">
                            <mxPoint x="-310" y="660"/>
                            <mxPoint x="-310" y="720"/>
                            <mxPoint x="-310" y="800"/>
                        </Array>
                    </mxGeometry>
                </mxCell>
                <mxCell id="158" value="" style="html=1;verticalLabelPosition=bottom;align=center;labelBackgroundColor=#ffffff;verticalAlign=top;strokeWidth=2;strokeColor=#0080F0;shadow=0;dashed=0;shape=mxgraph.ios7.icons.user;" parent="1" vertex="1">
                    <mxGeometry x="45" y="655.5" width="25" height="24.5" as="geometry"/>
                </mxCell>
                <mxCell id="159" value="&lt;span style=&quot;color: rgb(0, 0, 0); font-size: 16px;&quot;&gt;pietrosmusi@gmail.com&lt;/span&gt;" style="text;html=1;align=center;verticalAlign=middle;whiteSpace=wrap;rounded=0;" parent="1" vertex="1">
                    <mxGeometry x="132" y="652.75" width="60" height="30" as="geometry"/>
                </mxCell>
                <mxCell id="163" value="&lt;span style=&quot;&quot;&gt;Lorem ipsum dolor sit amet&lt;/span&gt;" style="text;html=1;align=left;verticalAlign=middle;whiteSpace=wrap;rounded=0;fontColor=#CCCCCC;" parent="1" vertex="1">
                    <mxGeometry x="75" y="685" width="205" height="20" as="geometry"/>
                </mxCell>
                <mxCell id="171" value="" style="rounded=1;whiteSpace=wrap;html=1;fillColor=none;" vertex="1" parent="1">
                    <mxGeometry x="18.25" y="585" width="270" height="220" as="geometry"/>
                </mxCell>
                <mxCell id="174" value="" style="html=1;verticalLabelPosition=bottom;align=center;labelBackgroundColor=#ffffff;verticalAlign=top;strokeWidth=2;strokeColor=#0080F0;shadow=0;dashed=0;shape=mxgraph.ios7.icons.pointer;" vertex="1" parent="1">
                    <mxGeometry x="251" y="610" width="19" height="20" as="geometry"/>
                </mxCell>
                <mxCell id="176" value="" style="rounded=1;whiteSpace=wrap;html=1;" vertex="1" parent="1">
                    <mxGeometry x="34.5" y="714.5" width="237.5" height="62.5" as="geometry"/>
                </mxCell>
                <mxCell id="175" style="edgeStyle=none;html=1;entryX=1;entryY=0.5;entryDx=0;entryDy=0;exitX=0;exitY=0.108;exitDx=0;exitDy=0;exitPerimeter=0;" edge="1" parent="1" source="IvZDIj7d1JSX7GaBaQQV-236" target="129">
                    <mxGeometry relative="1" as="geometry"/>
                </mxCell>
                <mxCell id="177" value="" style="html=1;verticalLabelPosition=bottom;align=center;labelBackgroundColor=#ffffff;verticalAlign=top;strokeWidth=2;strokeColor=#0080F0;shadow=0;dashed=0;shape=mxgraph.ios7.icons.user;" vertex="1" parent="1">
                    <mxGeometry x="47" y="722.5" width="25" height="24.5" as="geometry"/>
                </mxCell>
                <mxCell id="180" value="" style="edgeStyle=none;html=1;" edge="1" parent="1" source="178" target="179">
                    <mxGeometry relative="1" as="geometry"/>
                </mxCell>
                <mxCell id="181" value="" style="edgeStyle=none;html=1;" edge="1" parent="1" source="178" target="179">
                    <mxGeometry relative="1" as="geometry"/>
                </mxCell>
                <mxCell id="178" value="&lt;span style=&quot;color: rgb(0, 0, 0); font-size: 16px;&quot;&gt;mario@example.com&lt;/span&gt;" style="text;html=1;align=center;verticalAlign=middle;whiteSpace=wrap;rounded=0;" vertex="1" parent="1">
                    <mxGeometry x="123.25" y="719.75" width="60" height="30" as="geometry"/>
                </mxCell>
                <mxCell id="179" value="&lt;span style=&quot;&quot;&gt;Lorem ipsum dolor sit amet&lt;/span&gt;" style="text;html=1;align=left;verticalAlign=middle;whiteSpace=wrap;rounded=0;fontColor=#CCCCCC;" vertex="1" parent="1">
                    <mxGeometry x="75" y="749.75" width="160" height="22.5" as="geometry"/>
                </mxCell>
                <mxCell id="232" value="M1" style="text;html=1;align=center;verticalAlign=middle;whiteSpace=wrap;rounded=0;" vertex="1" parent="1">
                    <mxGeometry x="-830" y="421" width="60" height="30" as="geometry"/>
                </mxCell>
                <mxCell id="233" value="M2" style="text;html=1;align=center;verticalAlign=middle;whiteSpace=wrap;rounded=0;" vertex="1" parent="1">
                    <mxGeometry x="-240" y="421" width="60" height="30" as="geometry"/>
                </mxCell>
            </root>
        </mxGraphModel>
    </diagram>
</mxfile>